<?xml version="1.0" standalone="no"?>
<!DOCTYPE svg PUBLIC "-//W3C//DTD SVG 20010904//EN"
 "http://www.w3.org/TR/2001/REC-SVG-20010904/DTD/svg10.dtd">
<svg version="1.0" xmlns="http://www.w3.org/2000/svg"
 width="1500.000000pt" height="650.000000pt" viewBox="0 0 1500.000000 650.000000"
 preserveAspectRatio="xMidYMid meet">

<g transform="translate(0.000000,650.000000) scale(0.100000,-0.100000)"
fill="#000000" stroke="none">
<path d="M3385 3648 c-3 -7 -4 -416 -3 -908 l3 -895 157 -3 158 -3 2 558 3
557 554 -572 c305 -315 559 -568 563 -564 4 4 7 413 6 908 l-3 899 -157 3
-158 3 -2 -557 -3 -556 -553 571 c-305 314 -556 571 -558 571 -3 0 -7 -6 -9
-12z"/>
<path d="M2315 3618 c-3 -7 -4 -409 -3 -893 l3 -880 160 0 160 0 0 890 0 890
-158 3 c-120 2 -159 0 -162 -10z"/>
<path d="M5400 3490 l0 -140 255 0 255 0 2 -752 3 -753 160 0 160 0 3 753 2
752 255 0 255 0 0 140 0 140 -675 0 -675 0 0 -140z"/>
<path d="M7315 3618 c-3 -7 -4 -409 -3 -893 l3 -880 580 0 580 0 0 135 0 135
-417 3 -418 2 0 245 0 245 338 2 337 3 0 130 0 130 -337 3 -338 2 0 235 0 235
398 2 397 3 0 135 0 135 -558 3 c-441 2 -559 0 -562 -10z"/>
<path d="M9105 3618 c-3 -7 -4 -409 -3 -893 l3 -880 518 -3 517 -2 0 140 0
140 -355 0 -355 0 -2 753 -3 752 -158 3 c-120 2 -159 0 -162 -10z"/>
<path d="M10735 3618 c-3 -7 -4 -409 -3 -893 l3 -880 518 -3 517 -2 0 140 0
140 -355 0 -355 0 -2 753 -3 752 -158 3 c-120 2 -159 0 -162 -10z"/>
<path d="M12365 3618 c-3 -7 -4 -409 -3 -893 l3 -880 160 0 160 0 0 890 0 890
-158 3 c-120 2 -159 0 -162 -10z"/>
</g>
</svg>
