<svg id="svg" version="1.1" xmlns="http://www.w3.org/2000/svg" xmlns:xlink="http://www.w3.org/1999/xlink" width="400" height="173.33333333333334" viewBox="0, 0, 400,173.33333333333334"><g id="svgg"><path id="path0" d="M80.017 29.756 C 79.731 29.799,79.341 29.899,79.150 29.977 C 75.470 31.489,73.446 33.179,71.185 36.631 C 70.279 38.014,69.007 40.655,69.007 41.154 C 69.007 41.977,70.057 44.708,70.438 44.878 C 70.509 44.910,70.568 45.046,70.568 45.181 C 70.568 45.316,70.641 45.427,70.730 45.427 C 70.818 45.427,70.940 45.582,71.001 45.771 C 71.126 46.166,73.587 48.721,73.842 48.721 C 73.935 48.721,74.114 48.822,74.240 48.945 C 74.684 49.377,75.728 49.935,76.093 49.935 C 76.297 49.935,76.464 49.993,76.464 50.065 C 76.466 50.275,77.358 50.634,78.153 50.746 C 78.559 50.803,78.890 50.916,78.890 50.999 C 78.890 51.081,80.139 51.149,81.664 51.149 C 83.190 51.149,84.439 51.081,84.439 50.998 C 84.439 50.915,84.826 50.795,85.298 50.733 C 85.771 50.670,86.205 50.543,86.262 50.450 C 86.320 50.358,86.518 50.282,86.703 50.282 C 86.888 50.282,87.039 50.210,87.039 50.122 C 87.039 50.034,87.274 49.911,87.560 49.848 C 87.846 49.785,88.080 49.671,88.080 49.593 C 88.080 49.516,88.275 49.403,88.513 49.344 C 88.752 49.284,88.947 49.158,88.947 49.065 C 88.947 48.971,89.044 48.894,89.163 48.894 C 89.420 48.893,91.547 47.030,91.547 46.806 C 91.547 46.722,91.762 46.432,92.024 46.162 C 92.287 45.892,92.655 45.383,92.844 45.029 C 93.033 44.676,93.252 44.387,93.331 44.387 C 93.410 44.387,93.431 44.315,93.377 44.227 C 93.322 44.140,93.386 43.960,93.519 43.827 C 93.651 43.695,93.817 43.318,93.887 42.990 C 93.957 42.661,94.082 42.310,94.163 42.208 C 95.780 40.190,91.060 32.940,86.779 30.867 C 85.921 30.452,85.071 30.039,84.890 29.950 C 84.533 29.774,80.865 29.628,80.017 29.756 M46.901 51.126 C 43.020 52.157,41.750 57.195,44.061 62.386 C 44.568 63.525,45.689 65.467,46.057 65.843 C 46.303 66.094,49.415 66.153,49.415 65.906 C 49.415 65.822,49.844 65.699,50.368 65.634 C 50.893 65.568,51.322 65.452,51.322 65.375 C 51.322 65.299,51.560 65.189,51.850 65.131 C 52.339 65.033,53.588 64.235,53.721 63.936 C 53.752 63.864,53.875 63.806,53.992 63.806 C 54.278 63.806,55.830 62.242,55.830 61.953 C 55.830 61.828,55.906 61.725,55.999 61.725 C 56.170 61.725,56.870 60.339,56.870 60.001 C 56.870 59.900,56.945 59.818,57.036 59.818 C 57.127 59.818,57.253 59.544,57.316 59.209 C 57.378 58.874,57.499 58.558,57.584 58.505 C 57.668 58.453,57.737 58.176,57.737 57.889 C 57.737 57.602,57.808 57.235,57.895 57.073 C 58.145 56.606,57.835 55.360,57.371 54.966 C 53.626 51.782,49.763 50.365,46.901 51.126 M82.011 60.833 C 82.011 60.915,81.376 61.026,80.600 61.079 C 79.824 61.132,79.141 61.249,79.083 61.339 C 79.025 61.428,78.665 61.559,78.284 61.629 C 77.903 61.700,77.552 61.808,77.504 61.871 C 77.456 61.934,77.065 62.164,76.636 62.382 C 75.452 62.984,75.218 63.145,74.499 63.849 C 74.134 64.207,73.763 64.499,73.675 64.499 C 73.587 64.499,73.515 64.577,73.515 64.673 C 73.515 64.768,73.214 65.139,72.847 65.497 C 72.479 65.854,72.123 66.322,72.055 66.537 C 71.987 66.751,71.859 66.927,71.770 66.927 C 71.681 66.927,71.608 67.044,71.608 67.187 C 71.608 67.330,71.536 67.447,71.449 67.447 C 71.361 67.447,71.238 67.681,71.175 67.967 C 71.112 68.253,70.992 68.487,70.909 68.487 C 70.825 68.487,70.703 68.780,70.637 69.137 C 70.572 69.495,70.453 69.830,70.374 69.882 C 70.295 69.933,70.178 70.538,70.114 71.225 C 70.050 71.913,69.931 72.475,69.849 72.475 C 69.623 72.475,69.661 101.496,69.888 102.727 C 70.064 103.677,71.675 105.765,72.233 105.765 C 72.306 105.765,72.544 105.932,72.761 106.136 C 73.156 106.507,73.571 106.775,74.382 107.183 C 74.621 107.303,75.057 107.579,75.352 107.796 C 75.647 108.014,75.987 108.192,76.106 108.192 C 76.319 108.192,77.273 108.573,77.907 108.910 C 78.081 109.003,78.610 109.125,79.082 109.181 C 79.554 109.237,79.982 109.349,80.033 109.431 C 80.153 109.626,84.044 109.624,84.164 109.429 C 84.216 109.346,84.669 109.225,85.172 109.160 C 86.139 109.036,87.039 108.716,87.039 108.497 C 87.039 108.425,87.167 108.366,87.324 108.366 C 87.723 108.366,89.088 107.687,89.839 107.114 C 90.186 106.849,90.538 106.632,90.621 106.632 C 90.703 106.632,90.981 106.437,91.238 106.199 C 91.495 105.960,91.739 105.765,91.779 105.765 C 91.908 105.765,94.691 102.933,95.342 102.140 L 95.969 101.376 95.969 86.709 C 95.969 72.358,95.938 70.568,95.695 70.568 C 95.629 70.568,95.522 70.217,95.458 69.788 C 95.393 69.358,95.274 69.007,95.192 69.007 C 95.110 69.007,94.991 68.773,94.928 68.487 C 94.866 68.201,94.749 67.967,94.668 67.967 C 94.588 67.967,94.472 67.738,94.411 67.459 C 94.350 67.179,94.187 66.858,94.050 66.744 C 93.913 66.630,93.801 66.458,93.801 66.362 C 93.801 66.265,93.606 66.006,93.368 65.785 C 93.130 65.564,92.935 65.334,92.935 65.275 C 92.935 65.090,91.932 64.153,91.734 64.153 C 91.631 64.153,91.547 64.091,91.547 64.016 C 91.547 63.841,89.879 62.592,89.645 62.592 C 89.547 62.592,89.467 62.520,89.467 62.433 C 89.467 62.345,89.233 62.221,88.947 62.159 C 88.661 62.096,88.427 61.976,88.427 61.893 C 88.427 61.809,88.134 61.687,87.776 61.621 C 87.419 61.556,87.081 61.432,87.025 61.347 C 86.970 61.262,86.248 61.145,85.421 61.086 C 84.595 61.028,83.919 60.914,83.919 60.833 C 83.919 60.751,83.489 60.685,82.965 60.685 C 82.440 60.685,82.011 60.752,82.011 60.833 M37.930 77.262 C 30.858 78.781,31.080 85.763,38.243 87.134 C 38.971 87.273,39.623 87.422,39.693 87.465 C 40.083 87.706,41.959 85.439,41.959 84.726 C 41.959 84.584,42.053 84.436,42.168 84.398 C 42.316 84.349,42.377 83.702,42.377 82.185 C 42.377 80.668,42.316 80.021,42.168 79.971 C 42.053 79.933,41.959 79.724,41.959 79.506 C 41.959 79.289,41.803 78.912,41.612 78.670 C 41.422 78.427,41.266 78.177,41.266 78.114 C 41.266 77.246,39.776 76.866,37.930 77.262 M37.055 98.181 C 35.920 99.602,36.090 102.552,37.327 102.883 C 38.995 103.330,41.637 101.684,41.275 100.424 C 40.717 98.476,37.982 97.022,37.055 98.181 " stroke="none" fill="#fcdf7e" fill-rule="evenodd"></path><path id="path1" d="M78.890 25.084 C 78.557 25.129,78.209 25.238,78.119 25.327 C 78.028 25.415,77.814 25.488,77.643 25.488 C 77.259 25.488,75.943 26.046,75.943 26.208 C 75.943 26.274,75.714 26.377,75.435 26.439 C 75.155 26.500,74.833 26.662,74.720 26.799 C 74.606 26.936,74.406 27.048,74.274 27.048 C 74.143 27.048,74.036 27.121,74.036 27.210 C 74.036 27.299,73.895 27.416,73.723 27.471 C 73.330 27.595,72.140 28.731,71.494 29.598 C 71.224 29.960,70.905 30.318,70.786 30.394 C 70.666 30.471,70.568 30.646,70.568 30.785 C 70.568 30.923,70.496 31.036,70.408 31.036 C 70.320 31.036,70.197 31.270,70.134 31.556 C 70.072 31.842,69.952 32.076,69.868 32.076 C 69.785 32.076,69.665 32.349,69.603 32.683 C 69.540 33.017,69.422 33.290,69.341 33.290 C 69.259 33.290,69.141 33.680,69.078 34.157 C 69.014 34.634,68.906 35.024,68.837 35.024 C 68.630 35.024,68.477 37.865,68.598 39.445 C 68.739 41.272,68.779 41.270,69.663 39.402 C 71.635 35.233,74.484 32.074,77.503 30.708 C 78.218 30.384,78.991 30.033,79.220 29.928 C 79.758 29.680,84.249 29.675,84.803 29.921 C 89.252 31.903,91.452 34.019,93.753 38.533 C 94.227 39.462,94.666 40.170,94.728 40.108 C 94.899 39.937,94.865 35.891,94.693 35.891 C 94.611 35.891,94.498 35.449,94.442 34.910 C 94.387 34.371,94.270 33.883,94.183 33.826 C 94.096 33.770,93.971 33.431,93.905 33.073 C 93.840 32.716,93.717 32.423,93.634 32.423 C 93.551 32.423,93.431 32.189,93.368 31.903 C 93.305 31.617,93.182 31.383,93.094 31.383 C 93.006 31.383,92.935 31.266,92.935 31.123 C 92.935 30.980,92.862 30.863,92.773 30.863 C 92.684 30.863,92.558 30.696,92.494 30.492 C 92.342 30.014,89.730 27.395,89.405 27.395 C 89.269 27.395,89.112 27.278,89.057 27.135 C 89.002 26.992,88.838 26.875,88.692 26.875 C 88.546 26.875,88.427 26.803,88.427 26.715 C 88.427 26.627,88.192 26.504,87.906 26.441 C 87.620 26.378,87.386 26.274,87.386 26.208 C 87.386 26.023,86.044 25.488,85.579 25.488 C 85.349 25.488,85.130 25.393,85.091 25.278 C 85.020 25.063,80.182 24.912,78.890 25.084 M45.254 45.060 C 45.254 45.145,44.824 45.267,44.300 45.333 C 43.775 45.398,43.346 45.518,43.346 45.599 C 43.346 45.680,43.112 45.798,42.826 45.860 C 42.540 45.923,42.306 46.027,42.306 46.092 C 42.306 46.156,42.063 46.317,41.766 46.448 C 41.034 46.772,38.530 49.289,38.392 49.839 C 38.331 50.082,38.217 50.282,38.140 50.282 C 38.062 50.282,37.948 50.516,37.885 50.802 C 37.822 51.088,37.706 51.322,37.627 51.322 C 37.548 51.322,37.430 51.712,37.365 52.189 C 37.299 52.666,37.175 53.056,37.088 53.056 C 37.002 53.056,36.931 54.109,36.931 55.397 C 36.931 56.684,37.000 57.737,37.084 57.737 C 37.169 57.737,37.292 58.166,37.357 58.691 C 37.423 59.215,37.542 59.645,37.623 59.645 C 37.704 59.645,37.822 59.879,37.885 60.165 C 37.948 60.451,38.062 60.685,38.140 60.685 C 38.217 60.685,38.330 60.880,38.389 61.118 C 38.449 61.357,38.575 61.552,38.668 61.552 C 38.762 61.552,38.838 61.640,38.838 61.747 C 38.838 62.119,41.349 64.392,42.003 64.611 C 42.169 64.667,42.306 64.779,42.306 64.858 C 42.306 64.938,42.580 65.055,42.915 65.118 C 43.250 65.181,43.565 65.299,43.615 65.381 C 43.666 65.463,44.094 65.581,44.567 65.644 C 45.040 65.706,45.427 65.826,45.427 65.909 C 45.427 65.992,45.583 66.060,45.774 66.060 C 46.113 66.060,46.257 65.799,45.981 65.684 C 45.496 65.483,43.741 61.927,43.300 60.251 C 41.063 51.764,48.266 47.963,55.743 53.685 C 57.653 55.146,57.787 55.286,57.919 55.968 C 58.013 56.450,58.049 56.233,58.064 55.093 C 58.076 54.184,58.015 53.576,57.911 53.576 C 57.815 53.576,57.737 53.303,57.737 52.969 C 57.737 52.635,57.666 52.362,57.579 52.362 C 57.492 52.362,57.366 52.031,57.298 51.625 C 57.230 51.220,57.126 50.850,57.066 50.802 C 56.910 50.678,56.551 50.088,56.354 49.632 C 56.261 49.417,56.105 49.241,56.008 49.241 C 55.910 49.241,55.830 49.144,55.829 49.025 C 55.828 48.674,53.941 46.814,53.586 46.814 C 53.495 46.814,53.358 46.715,53.281 46.593 C 53.050 46.224,51.310 45.419,50.507 45.309 C 50.092 45.252,49.711 45.138,49.660 45.056 C 49.538 44.858,45.254 44.862,45.254 45.060 M33.290 75.227 C 33.290 75.310,32.978 75.428,32.596 75.489 C 32.215 75.550,31.903 75.677,31.903 75.771 C 31.903 75.866,31.775 75.943,31.618 75.943 C 31.243 75.943,29.154 78.122,29.021 78.652 C 28.964 78.878,28.852 79.064,28.771 79.064 C 28.690 79.064,28.577 79.356,28.520 79.714 C 28.463 80.072,28.342 80.500,28.252 80.665 C 28.032 81.070,28.040 83.572,28.262 83.572 C 28.357 83.572,28.435 83.771,28.435 84.015 C 28.435 85.036,30.623 88.080,31.356 88.080 C 31.466 88.080,31.556 88.151,31.556 88.239 C 31.556 88.326,31.927 88.528,32.380 88.688 C 32.833 88.847,33.339 89.049,33.504 89.135 C 33.888 89.337,36.880 89.343,37.004 89.143 C 37.055 89.060,37.411 88.942,37.794 88.881 C 38.178 88.819,38.492 88.692,38.492 88.598 C 38.492 88.504,38.609 88.427,38.752 88.427 C 38.895 88.427,39.012 88.349,39.012 88.253 C 39.012 88.158,39.117 88.080,39.246 88.080 C 39.376 88.080,39.692 87.885,39.949 87.646 C 40.206 87.408,40.339 87.213,40.245 87.213 C 40.150 87.213,40.023 87.292,39.964 87.389 C 39.904 87.486,39.790 87.525,39.710 87.476 C 39.631 87.427,38.971 87.273,38.243 87.134 C 34.243 86.369,31.630 83.182,32.941 80.668 C 34.102 78.441,38.668 76.302,40.294 77.224 C 40.777 77.499,40.758 77.458,40.102 76.823 C 39.700 76.434,39.300 76.116,39.213 76.116 C 39.126 76.116,38.959 76.001,38.842 75.861 C 38.726 75.720,38.364 75.555,38.039 75.494 C 37.714 75.433,37.405 75.314,37.352 75.230 C 37.229 75.030,33.290 75.028,33.290 75.227 M36.249 98.061 C 35.510 98.382,34.330 99.599,34.330 100.040 C 34.330 100.221,34.252 100.418,34.157 100.477 C 33.948 100.606,33.926 102.180,34.127 102.603 C 35.073 104.593,35.930 105.214,37.755 105.233 C 38.351 105.240,38.838 105.177,38.838 105.093 C 38.838 105.010,39.053 104.898,39.315 104.845 C 40.398 104.627,41.261 103.403,41.398 101.892 L 41.493 100.850 40.848 101.563 C 38.913 103.705,36.238 103.339,36.238 100.932 C 36.238 100.112,36.684 98.581,37.022 98.243 C 37.540 97.725,37.205 97.646,36.249 98.061 M95.914 101.152 C 95.867 101.631,92.161 105.765,91.779 105.765 C 91.739 105.765,91.495 105.960,91.238 106.199 C 90.981 106.437,90.703 106.632,90.621 106.632 C 90.538 106.632,90.186 106.849,89.839 107.114 C 89.088 107.687,87.723 108.366,87.324 108.366 C 87.167 108.366,87.039 108.425,87.039 108.497 C 87.039 108.716,86.139 109.036,85.172 109.160 C 84.669 109.225,84.216 109.346,84.164 109.429 C 84.044 109.624,80.153 109.626,80.033 109.431 C 79.982 109.349,79.554 109.237,79.082 109.181 C 78.610 109.125,78.081 109.003,77.907 108.910 C 77.273 108.573,76.319 108.192,76.106 108.192 C 75.987 108.192,75.647 108.014,75.352 107.796 C 75.057 107.579,74.621 107.303,74.382 107.183 C 73.571 106.775,73.156 106.507,72.761 106.136 C 72.544 105.932,72.306 105.765,72.233 105.765 C 71.746 105.765,70.052 103.671,69.901 102.882 C 69.790 102.299,69.734 104.361,69.720 109.536 C 69.710 113.661,69.768 117.035,69.849 117.035 C 69.931 117.035,70.050 117.597,70.114 118.285 C 70.178 118.972,70.295 119.577,70.374 119.628 C 70.453 119.680,70.572 120.015,70.637 120.373 C 70.703 120.730,70.812 121.024,70.879 121.025 C 70.946 121.026,71.154 121.375,71.342 121.800 C 71.529 122.226,71.782 122.613,71.905 122.660 C 72.028 122.707,72.128 122.847,72.128 122.970 C 72.128 123.093,72.323 123.404,72.562 123.661 C 72.800 123.918,72.995 124.183,72.995 124.249 C 72.995 124.435,74.086 125.448,74.426 125.578 C 74.593 125.641,74.729 125.769,74.729 125.861 C 74.729 125.953,74.905 126.083,75.119 126.151 C 75.334 126.219,75.631 126.414,75.780 126.585 C 75.928 126.755,76.260 126.948,76.517 127.012 C 76.773 127.076,76.983 127.192,76.983 127.270 C 76.983 127.347,77.217 127.462,77.503 127.525 C 77.789 127.588,78.023 127.704,78.023 127.783 C 78.023 127.861,78.433 127.982,78.934 128.050 C 79.434 128.118,79.900 128.262,79.968 128.369 C 80.142 128.646,85.964 128.642,86.136 128.365 C 86.204 128.256,86.630 128.110,87.083 128.042 C 87.536 127.975,87.906 127.856,87.906 127.779 C 87.906 127.702,88.156 127.584,88.460 127.518 C 88.765 127.451,89.121 127.288,89.253 127.157 C 89.384 127.026,89.603 126.918,89.739 126.918 C 89.876 126.918,89.987 126.840,89.987 126.745 C 89.987 126.649,90.076 126.571,90.184 126.571 C 90.292 126.571,90.561 126.376,90.782 126.138 C 91.003 125.899,91.256 125.704,91.345 125.704 C 91.702 125.704,93.975 123.166,93.975 122.767 C 93.975 122.666,94.044 122.583,94.129 122.583 C 94.214 122.583,94.333 122.388,94.393 122.150 C 94.453 121.912,94.575 121.717,94.664 121.717 C 94.753 121.717,94.877 121.443,94.940 121.110 C 95.003 120.776,95.114 120.503,95.188 120.503 C 95.262 120.503,95.378 120.132,95.446 119.679 C 95.514 119.226,95.659 118.800,95.769 118.732 C 95.914 118.643,95.984 116.420,96.024 110.670 C 96.072 103.828,96.028 99.990,95.914 101.152 " stroke="none" fill="#fccc37" fill-rule="evenodd"></path><path id="path2" d="M117.491 70.438 C 117.355 70.948,117.355 117.869,117.491 118.379 L 117.596 118.769 121.910 118.769 L 126.225 118.769 126.225 104.291 C 126.225 96.164,126.291 89.814,126.376 89.814 C 126.459 89.814,127.220 90.521,128.066 91.386 C 128.913 92.251,129.946 93.284,130.361 93.683 C 130.777 94.082,131.323 94.624,131.575 94.887 C 132.093 95.429,134.940 98.286,135.279 98.605 C 135.620 98.925,135.934 99.324,135.934 99.437 C 135.934 99.493,137.846 101.452,140.182 103.790 C 142.518 106.129,144.430 108.087,144.430 108.143 C 144.430 108.262,145.340 109.203,149.675 113.563 C 151.463 115.362,152.926 116.885,152.926 116.948 C 152.926 117.311,155.539 119.636,155.947 119.636 L 156.395 119.636 156.351 95.232 L 156.307 70.828 151.972 70.828 L 147.638 70.828 147.551 85.373 L 147.464 99.919 143.780 96.236 C 141.753 94.210,140.095 92.500,140.095 92.436 C 140.095 92.372,138.184 90.386,135.847 88.023 C 133.511 85.660,131.599 83.684,131.599 83.632 C 131.599 83.580,130.371 82.305,128.869 80.800 C 127.367 79.295,125.810 77.723,125.409 77.306 C 125.008 76.890,124.383 76.276,124.022 75.941 C 123.660 75.606,123.234 75.138,123.075 74.900 C 122.916 74.663,121.806 73.474,120.609 72.258 C 118.327 69.941,117.719 69.586,117.491 70.438 M171.420 70.857 C 171.357 70.920,171.305 72.676,171.305 74.758 L 171.305 78.544 178.153 78.544 L 185.002 78.544 185.002 98.656 L 185.002 118.769 189.510 118.769 L 194.018 118.769 194.018 98.656 L 194.018 78.544 200.780 78.544 L 207.542 78.544 207.542 74.642 L 207.542 70.741 189.539 70.741 C 179.637 70.741,171.484 70.793,171.420 70.857 M222.396 70.857 C 222.332 70.920,222.280 81.727,222.280 94.871 L 222.280 118.769 237.971 118.769 L 253.663 118.769 253.663 114.954 L 253.663 111.140 242.479 111.140 L 231.296 111.140 231.296 104.725 L 231.296 98.309 240.399 98.309 L 249.502 98.309 249.502 94.582 L 249.502 90.854 240.399 90.854 L 231.296 90.854 231.296 84.699 L 231.296 78.544 241.959 78.544 L 252.622 78.544 252.622 74.642 L 252.622 70.741 237.567 70.741 C 229.286 70.741,222.459 70.793,222.396 70.857 M270.426 70.854 C 270.361 70.919,270.308 81.727,270.308 94.871 L 270.308 118.769 284.439 118.769 L 298.570 118.769 298.570 114.954 L 298.570 111.140 288.947 111.140 L 279.325 111.140 279.281 90.984 L 279.237 70.828 274.891 70.782 C 272.501 70.756,270.491 70.789,270.426 70.854 M313.773 70.854 C 313.707 70.919,313.654 81.727,313.654 94.871 L 313.654 118.769 327.785 118.769 L 341.916 118.769 341.916 114.954 L 341.916 111.140 332.380 111.140 L 322.845 111.140 322.801 90.984 L 322.757 70.828 318.324 70.782 C 315.886 70.756,313.838 70.789,313.773 70.854 M357.292 70.854 C 357.227 70.919,357.174 81.727,357.174 94.871 L 357.174 118.769 361.682 118.769 L 366.191 118.769 366.147 94.798 L 366.103 70.828 361.757 70.782 C 359.367 70.756,357.357 70.789,357.292 70.854 " stroke="none" fill="#040404" fill-rule="evenodd"></path><path id="path3" d="" stroke="none" fill="#408070" fill-rule="evenodd"></path><path id="path4" d="" stroke="none" fill="#400474" fill-rule="evenodd"></path></g></svg>